/* XPM */
static char *f09034f3e5b54062b9f959dd46b22061QRdhVe3GTtXu7Igz[] = {
/* columns rows colors chars-per-pixel */
"64 64 231 2 ",
"   c #050101",
".  c #0B0806",
"X  c #04030B",
"o  c #070A0A",
"O  c #120606",
"+  c #180906",
"@  c #140C0C",
"#  c #1C0E0D",
"$  c #0E150E",
"%  c #10170E",
"&  c #1D110D",
"*  c #090914",
"=  c #150E16",
"-  c #151213",
";  c #1C1213",
":  c #141C15",
">  c #181E14",
",  c #16131B",
"<  c #1A151B",
"1  c #1D191D",
"2  c #200F0D",
"3  c #23140E",
"4  c #2F1B0F",
"5  c #311B0F",
"6  c #231413",
"7  c #241717",
"8  c #281414",
"9  c #2D1C15",
"0  c #241A1D",
"q  c #2D1C19",
"w  c #341E12",
"e  c #3B1F13",
"r  c #311F1A",
"t  c #1A2117",
"y  c #2C2116",
"u  c #2E211A",
"i  c #342114",
"p  c #392315",
"a  c #34221A",
"s  c #3A241A",
"d  c #37291A",
"f  c #3C2A1C",
"g  c #3F301F",
"h  c #1B1924",
"j  c #181826",
"k  c #231B23",
"l  c #261E25",
"z  c #1E263A",
"x  c #252424",
"c  c #2B2324",
"v  c #24232C",
"b  c #2B242C",
"n  c #362625",
"m  c #3D2B23",
"M  c #283725",
"N  c #2A3C2A",
"B  c #3E3222",
"V  c #3D332C",
"C  c #242333",
"Z  c #2B2A34",
"A  c #2B2A37",
"S  c #21263C",
"D  c #24293D",
"F  c #332D35",
"G  c #342F3A",
"H  c #2C3139",
"J  c #3A3236",
"K  c #33323B",
"L  c #422C1C",
"P  c #492D1A",
"I  c #522F19",
"U  c #45301F",
"Y  c #4C321F",
"T  c #422D22",
"R  c #412E28",
"E  c #453325",
"W  c #4A3525",
"Q  c #403827",
"!  c #4C3827",
"~  c #463429",
"^  c #4A362A",
"/  c #45392B",
"(  c #4B382B",
")  c #553A27",
"_  c #543C2D",
"`  c #453A36",
"'  c #4A3C32",
"]  c #543E32",
"[  c #593D37",
"{  c #344B36",
"}  c #5A432E",
"|  c #4E4133",
" . c #4E4038",
".. c #534233",
"X. c #5B4533",
"o. c #534339",
"O. c #5B4838",
"+. c #5D4A3B",
"@. c #6B452C",
"#. c #634B35",
"$. c #694C34",
"%. c #644D3D",
"&. c #694E3B",
"*. c #724C31",
"=. c #65523D",
"-. c #6C523B",
";. c #71533C",
":. c #7D5938",
">. c #1E2642",
",. c #232B43",
"<. c #262B43",
"1. c #252D49",
"2. c #263042",
"3. c #2C3146",
"4. c #2C324C",
"5. c #393743",
"6. c #31354B",
"7. c #36394C",
"8. c #3B3C4C",
"9. c #2F3652",
"0. c #303651",
"q. c #343A54",
"w. c #393E53",
"e. c #373E59",
"r. c #453D43",
"t. c #423E49",
"y. c #3E4D46",
"u. c #3E4254",
"i. c #3C435C",
"p. c #3E4662",
"a. c #3F4864",
"s. c #464147",
"d. c #44434C",
"f. c #5B4B44",
"g. c #424453",
"h. c #4A4854",
"j. c #43465C",
"k. c #44495D",
"l. c #4B4B5B",
"z. c #524C56",
"x. c #535351",
"c. c #634E43",
"v. c #6B4E41",
"b. c #645343",
"n. c #6A5443",
"m. c #685649",
"M. c #705743",
"N. c #436449",
"B. c #486448",
"V. c #4C6E51",
"C. c #517453",
"Z. c #557C59",
"A. c #414763",
"S. c #424A65",
"D. c #494E65",
"F. c #454C6A",
"G. c #484E6A",
"H. c #534E62",
"J. c #4C5164",
"K. c #4B526C",
"L. c #565569",
"P. c #575769",
"I. c #5C5A6C",
"U. c #4D5572",
"Y. c #4A5479",
"T. c #535A75",
"R. c #585B74",
"E. c #555D7A",
"W. c #615D72",
"Q. c #5B6379",
"!. c #5B627D",
"~. c #636474",
"^. c #65667B",
"/. c #656A7D",
"(. c #696B7C",
"). c #8B5D35",
"_. c #916B46",
"`. c #9C7954",
"'. c #A67949",
"]. c #55815B",
"[. c #588360",
"{. c #5E8F68",
"}. c #5F9266",
"|. c #628762",
" X c #638C67",
".X c #638E68",
"XX c #66936C",
"oX c #64946C",
"OX c #63986C",
"+X c #649670",
"@X c #699470",
"#X c #649971",
"$X c #9D825E",
"%X c #B48956",
"&X c #A98963",
"*X c #A99066",
"=X c #B59666",
"-X c #C19B64",
";X c #C7A36B",
":X c #D0B27A",
">X c #555B81",
",X c #5D6482",
"<X c #5C658A",
"1X c #626684",
"2X c #636A85",
"3X c #686B85",
"4X c #656D8A",
"5X c #6B6E89",
"6X c #716E86",
"7X c #6B738A",
"8X c #6B728E",
"9X c #717185",
"0X c #72748D",
"qX c #757A8D",
"wX c #6C7492",
"eX c #6C7793",
"rX c #717591",
"tX c #717A96",
"yX c #777C97",
"uX c #757E99",
"iX c #78809A",
"pX c #7B829C",
"aX c #7D86A1",
"sX c #81879D",
"dX c #818AA5",
"fX c #848DA9",
"gX c #8B93AD",
"hX c #8D96B1",
"jX c #8F98B2",
"kX c #D3B984",
"lX c #DAC084",
/* pixels */
"i.U.eXpXpXpXuX8X!.!.7XiXiXtX8XeXwX8X2XE.U.U.F.S.U.2XeXtXuXiXpXfXfXaXdXaXdXaXaXgXaXaXpXpXeXU.i.F.,XiXpXpXpXeX1X,X4XtXpXyXwXeXeXwX",
"4.e.K.E.T.T.E.4XiXdXdXfXdXyXeX8X8XwXwX2X<X!.K.S.T.,XeXyXsXfXaXpXuXuXtXtXtXuXtXuXeXiXpXaXpXU.9.q.K.T.Q.T.E.1XtXaXdXfXfXdXtXwXwXeX",
"1.4.k.G.D.S.K.4XdXjXjXjXgXpX8X8X0X0XrX0X7X2XP.S.T.7XeXpXfXgXdXuXeX8X8X8X8X8XeXeXiXqXsXgXaXK.1.2.i.D.a.S.K.Q.pXjXhXhXhXfXeXwXwXwX",
"1.4.i.S.j.i.S.1XdXhXgXgXgXtX/.(.(.(.^.3X(.Q.K.j.J.Q./.7XiXsXqX9X1X!./.^.^.(./.3X(.9XqXsXiXN.D z y.u.u.u.g.E.yXgXgXhXgXdXtXwXwXwX",
"1.1.4.4.0.0.q.T.yXdXsXpXuXQ.h.g.t.t.t.t.t.5.5.G H y.t.g.z.l.l.h.s.8.s.8.8.s.8.t.s.h.z.H.h.K k k x b F A Z h.(.pXpXsXaXyXwXwXwXwX",
",.,.,.,.,.,.4.F.0XyXrX0X2Xl.A h k k l l k < 0 1 1 1 0 0 k b c l 0 0 x x 0 0 1 0 k x u c x 0 < # & 7 > , < 3.P.qXqX0X0XrXwXwXwXwX",
"S 1.,.S ,.>.,.A.3XrX0X6X~.8.j * = = ; 6 = # # ; : ; 3 # # # & & # & - ; 3 # ; ; # # & & # # 3 # + & & @ ; G P.5XqX9X5XrXwXwXeXtX",
"e.6.<.,.4.0.e.G.4X6X~.P.z.5.b l l r s n a r r r a d a a w q u w w p a a a a u a p q u u q a n r u i y y u K h.P.~.3X5X5X1X1X4X4X",
"T.S.4.1.e.G.E.,X8X3XD.5.` r.r.[ [ [ ] _ ] ] _ _ ..X.X..._ .._ ) _ ) ] ] _ ( _ ...._ ] _ | ..X.[ ( _ ( ' ' ` J 5.h.^.9X2XT.T.T.T.",
"8XT.7.2.A.!.5X6XrX3Xk.l l ' x.c.v.v.v.%.&.-.&.&.$.$.-.$.$.&.&.$.&.&.$.&.=.#.&.&.&.&.%.-.=.=.&.&.&.%.f.b.f.] b k 5.~.qX2XK.D.F.F.",
"4XT.7.,.A.1XtX0XrX2Xg.< 7 ` m.n.M.M.M.n.-.M.;.;.;.;.-.;.;.;.-.-.-.-.&.;.-.-.-.-.-.;.-.M.M.;.-.;.-.-.n.m.m. .q = b I.9X~.F.p.A.A.",
"Q.K.0.<.i.1XwXwX0X^.g.h 7 ^ v.n.-.-.-.-.-.;.;.&.*.*.*.;.;.-.$.-.-.$.-.$.-.-.-.-.=.-.-.;.;.;.-.-.-.b.b.m.b. .r ; b D.Q.P.F.A.A.F.",
"K.p.4.z A.,XwXrXrX^.d.j 6 ~ v.n.-.-.n.;.-.;.;.&.&.;.;.&.;.-.$.-.-.$.-.=.-.-.-.=.=.-.;.;.-.-.-.-.b.=.n.M.m.o.a # v h.J.D.S.S.A.F.",
"A.e.,.,.p.3XrXwXwX^.d.h 6 R c.M.v.&.-.-.$.-.$.&.&.&.-.&.$.$.-.&.&.-.-.n.b.-.-.n.b.n.=.=.n.m.-.-.b.n.M.M.m.O.a ; l 8.A.j.A.A.A.A.",
"S.e.<.,.p.E.4X4X1XW.t., 6 ~ %.%.#.#.#.#.#.#.[ #.#.X.#.X.#.#.#.X.X.#.X.#.+.X.O.X.O.+.O.X.+.#.#.O.o.=.-.=.v...r ; C g.D.G.A.p.F.a.",
"S.e.<.z e.U.E.E.E.P.` < ; T ..[ _ ! Y ) ! W W W W W W W W ! W ^ W ! E W ( W W W ! ( ( ! | Y | ! ~ ( ( _ [ ` r ; A l.R.T.D.a.a.F.",
"j.e.2.S q.a.G.F.F.k.G < ; s _ ! L p p p p p p p p p p p p p i p p p p i p p p p p p p p p p p a i i i L W m q 6 F I.6X,XF.S.S.a.",
"p.6.D D 6.i.i.i.S.j.G , 3 f ( ~ p w w e p p p p i i i i i i i i i i p p p i i i w i i i i i p p i 9 w f E m 7 3 G I.5X^.D.S.S.a.",
"q.4.D D 3.q.e.i.D.h.F < 6 f .._ s w e L L L E f f n f s B B f f d f L f d U f p i d d d d d L L f p f W _ E 7 = F P.1XE.S.k.p.p.",
"1.<.D D H 2.4.q.D.k.G h 6 T +.X.T e s T ^ W ~ ^ E m a f B ( Q E E B W E E E E f f f L U E ~ ~ T f p L _ +._ 8 # b z.P.S.j.i.p.a.",
"S S D D z z z 6.k.j.G 0 8 T c.%.^ e e W ( ( ^ ' R m w n ~ ( ` ^ ( ( ( ( ( ( ! L i p L W ! ! ( E a s L ..n.o.r # v s.l.i.i.p.p.p.",
",.D D z z z z 3.e.d.F 1 8 R c.c.^ r e R ^ ^ ~ ^ W T e m ~ _ ^ ( ( ( _ ( ( ( W f p i f W ^ ^ ! ~ d p L } b.O.a # c 8.j.i.i.S.p.p.",
"6.3.D z D z D 3.7.J b 1 7 ~ c.n.^ e e T ^ ^ ~ ( ^ T T ~ ^ ^ ^ ^ ( ( ( ( ( ( ~ L a p m / ^ _ ! ~ d p f } c.o.f # k 3.0.q.9.e.q.q.",
"p.w.H z D D D D D C l < 7 ~ c.n.R 5 p T ^ ^ ^ ( ^ ^ ^ ^ ( ^ ^ ^ / ( ( ( ! ( W L d i U ~ ^ ^ ^ E d w L ] c...a # < C 1.1.>.>.1.>.",
"F.i.3.z ,.<.D ,.D A k = 7 ~ v.c.W 5 e T W ^ W ^ ^ ^ ^ ^ ! ! ! W ^ ( Q ! ! ( W U f f T E ^ ^ ^ T f w L X.b.' r # 0 C <.S >.<.,.,.",
"U.j.3.D <.4.4.4.w.8.A = 6 ~ c.v.W 5 5 T W ! ! / ^ ^ W W W W Q ! ! ( ! W ! ( ~ B L P T W ^ ~ ( E f w L ..b.] r # l 6.q.0.0.0.e.q.",
"1XK.6.D 3.7.i.F.T.P.5.= 6 ~ c.&.W 5 5 T W ( ! ~ ! W ~ ! ! Q ! ! W ! ~ ! } ( ~ U T T W ^ W ~ ^ E f e L X.b.o.r 6 Z H.R.T.E.E.>X>X",
"8XT.0.S 6.i.S.E.5X^.d.< 8 ~ c.v.W e e P ! ! ! W ~ W ~ ! ! Q Y Q W W ~ W ! ! V B T ~ R ^ ^ ^ ^ ~ f 4 f X.b.] r 6 J W.0X5X8XwX4X8X",
"8XT.4.>.0.p.F.E.5X^.d.1 6 ( m.v.^ e w P W E ! ( ~ ! ! ! Q Y ! ! W ^ W W ! W W W W E ^ ( ( ( ( T p w f } b...q < G W.8X8XwXeXwXwX",
"!.K.e.9.S.U.,X2X8X^.d.1 6 ^ b.%.Y 5 e P E E ( ! Q ! / Y ! ! ! Y W W W W Q ! W W ^ W ( ( ' ( ( E p w f ..b.] a 6 G T.0XwXwX4X4XwX",
"S.S.S.S.T.<X8X4X0X^.s.1 8 ^ c.%.R 5 e T ^ ~ ^ ~ W ! ! W Q ! W ! W ! W ^ W ! ^ / ~ ! ! W ^ ^ ^ E f i L X.b.[ r 6 G W.wXwXeX4XwXwX",
"S.S.S.S.E.4XwXwXwX^.d.1 8 ^ c.b.^ e 5 T W W ^ ( ~ ! Q W W W ! ! ( ( ! ^ ^ ! ( ^ W ^ W E E W Y Y L 5 L X.b...r 6 G W.wXwXwX4XwX4X",
"A.F.F.Y.>X4XwXwXrX^.d.< 3 ~ c.v.E w w g ! ! ! ! ! Q ! W W ! ~ ! W ^ ^ _ ^ ^ ^ ~ E ) X.+.=.@.@.) Y i f } b.| a ; Z P.(.2X,X<X,X,X",
"j.P.E.<X4XwXtXwXrX^.d.< 3 ~ c.%.Y 4 w U / / ~ ! W W ! Q W ! ~ ( ^ ^ ( ( ^ ^ W W E ) _.*X=X'._.).} P d } b.| i ; v h.R.U.T.T.U.K.",
"A.R.<X4XwXwXtXwXeX(.s.1 8 T c.%.U 4 i U ~ / / Q W ! ! W E ! ( ! ^ ~ ^ ( ^ ^ W ^ E #.`.kXkX;X;X$X#.f f } b. .w & C u.J.G.F.K.a.a.",
"j.R.1XwXwXwXwXeX8X~.r.< 3 ~ c.%.E 5 w U ! ! ( ~ ~ ( W W W ! ( ( W ^ ^ ( ^ _ ^ Y E X.*XkXlX:XkX*X#.p f X.b.| q ; C u.S.S.a.F.a.a.",
"q.G.1X5X4X<X<X>X!.P.y.; 3 E c.%.W w w U / ! ( ~ / ( / ! W W ! ! ^ ^ R ^ ^ ^ ^ ^ Y } &XkX:X;X:X*X@.p L X.b.( 9 ; z u.S.F.a.a.a.a.",
"1.A.1XwX1X>X>XF.U.l.K ; 3 E c.%.W 5 w U / ( ( / ~ ! ! W W W W ! ) ^ ^ ^ _ _ ^ ^ Y ) `.:X:X%X;X=X@.p s } b.| q ; v u.S.F.a.F.a.K.",
"1.t.1X8X,XY.F.F.F.g.Z - 3 W c.%.E 4 i U ~ ! ( ( ! / ! Q Q ! W ! ^ ^ ^ ^ ^ ^ ^ ^ Y } ).=X;X%X-X%X@.e P } b.| y & v 8.S.a.a.a.a.a.",
",.e.R.>XE.Y.F.A.S.t.F ; 3 W f.%.E w w U ~ ! / ( / ! Y Q W W W W ^ ^ ^ ^ ^ ) ^ ^ Y } :.'.%X%X%X'.) L L } b.| y # C 8.a.a.K.a.a.a.",
">.4.p.a.F.Y.F.p.S.g.F < 3 ! c.%.W 5 w E ~ ~ ~ ! ( ( ~ ! ! ~ ! W ^ _ ^ ^ ^ ^ ^ Y ^ ) *.*.:.).).*.f i f } =...u - C 7.k.S.a.S.a.S.",
"z ,.1.1.e.p.a.a.S.j.F < 3 E c.%.W 5 w P W ! / ~ ( ( ! ! ~ ~ ! W ^ W W R ^ ^ _ W ^ ^ W Y U I I P p i g } b.| u & v 8.k.S.S.S.S.a.",
",.1.1.1.9.p.F.F.F.j.K , 3 ~ c.%.W 5 e T ! / ( ~ ~ W Y ! Q Q ! ! W ^ Y W ~ ^ ( ^ ^ W L w w 4 5 y 5 i g ..c.| q ; v 8.k.S.S.a.a.a.",
"e.e.i.e.a.a.>X>XU.H.` < 3 ! c.=.W 5 w L ~ ( ! / E U Y L Y ~ ! Y W ^ Y ^ / ( ( ^ ~ ~ R m d d f B a u U o.+.| p ; C u.l.a.i.i.i.w.",
"E.E.>X>X>X<X<X<X1XI.r.< 3 ~ c.%.W 5 i g / ! ( / f f f L E W ! W W W W W W ! ( ( ~ ^ Q B B B B B d i f ..b.| u ; v u.k.i.4.4.4.4.",
"4XwXwXwXwXwXwXwXeX^.s.7 3 E c.#.E 5 w U ! ~ ( ( E i w L L E ! W ^ Y W W ^ _ ( ~ ~ ^ / B Q V / V d p g } b.| u > x 8.k.q.<.>.>.>.",
"wXwXwXtXwXwXwX<X8X~.r.< 3 ~ c.%.E 5 i U ~ ( / ( E p w f E E W W W Y ^ W W ( ( / ~ ( / / | Q / / d w f } =.| u ; x u.F.i.1.>.1.9.",
"4X8XwXwX<X<X>X<X!.H.` = 6 W n.%.W e i U / ( / / E p w f L ! W W W W W W ! ^ ^ ^ ^ ^ / / Q ~ ( Q d y f ..b...y % v h.Q.a.4.>.9.a.",
"wXeXrXwX>XY.G.F.G.t.F @ 3 ~ v.b.W w e ~ ^ ^ ( ^ ~ d w f E ^ ^ W ~ ^ ^ ^ ^ ^ ^ ^ ( ^ ^ ~ ^ ! ! E d i d } b.O.u - A P.3XY.4.1.p.!.",
"4X4XwX4XE.F.F.A.F.e.b @ 6 ~ b.c.W r e R ^ ' ' ( E a w s E ~ ~ ^ ^ ^ ~ ^ _ ^ ) ^ ^ ^ E ^ ! ! ) W f i f | b. .u - K W.6XT.0.<.S.<X",
",X,X1X1XE.G.A.D.G.t.A < 6 ` b.f.~ e s ~ ^ ( ' ( E d i f ~ ~ ~ ^ ~ ^ ^ ^ ^ ^ ^ ^ ~ R ~ ~ ! ) ) ! g i f | b.] a 6 G I.^.F.2.2.a.4X",
"K.U.T.Y.G.F.S.A.F.g.b < 7 / m.+.~ p s ~ ' ( ( ( V f a f R ~ ^ ^ ^ ^ ^ ^ [ ^ ^ R m m R ~ ^ ^ ! ~ d i B ..m.o.n 8 b z.I.t.2.>.a.4X",
"S.S.a.S.A.S.A.k.S.g.H < 6 ' b.o.~ i s E ^ ` ^ ` ~ n e m R ^ ~ ^ ^ ' ^ ` ^ ` R m n s T R / ^ ` ~ f a E o.m.f.n 2 c r.h.u.>.>.a.4X",
"S.A.A.k.j.A.A.k.k.g.H - 7 / b.o.L w a m E R ~ ~ m a r f V ~ R R ^ R R ^ R R R n r r s R ~ ~ T R n a m o.f.` c 2 b ` z.8.<.z i.,X",
"j.i.j.k.j.j.k.l.l.g.F > : c J B w 2 6 q r r a q q 6 8 8 q r r r r r r r q 8 q q 8 8 8 8 q a r q 8 8 q n V n 7 6 l ` 8.6.,.D i.Q.",
"j.j.j.j.k.j.l.l.h.s.F 7 - @ @ & + O O O O O O O O O O O O O O O O O O O O O O O O O O O O O O . O O O O @ @ = ; 7 l A H D z 7.S.",
"j.j.j.k.j.j.j.h.l.d.F < $ .   .             .               .                                               @ : k k C S A <.4.w.",
"7.7.7.w.7.7.7.8.d.5.C - o $ > > > , : : : > t : : t t : : t t t : : : : : : : : : : : : t t t : : : : , : $ $ % j k C C C C D 6.",
"h j j j h j h j h j * * o { o.B.B.B.N.N.N.N.V.N.N.N.N.N.N.N.N.N.N.N.N.N.N.N.N.N.N.N.B.B.N.N.N.B.B.B.B.B.N.y.t o * , = * * j j j ",
"X X X X X X X X o X X X % { |.OX|..X+X.X.X.X+X{.{.{.{.{.{.{.}.}.{.{.{.{.{.{.{.{..X.X.X X}.{..X.X X|. X.X|.N.x o X X X X X X * * ",
". o o o o o o o o o o o : N.}.OX{.+X+X+X+X+X#X#XOX#X#X#X#X#X#X#X#X#X#X#X+X+X+X+X#X#XOX#X#X#XOX@X@X@XXX@X XV.M @ o o o X * o o o ",
"N N N N N N N N N N N N { N.@XOX+X+X+X+X+X#X#X#X#X#X#X#X#X#X#X#X#X#X#X#X#X+X+X#XOXOX#X#X#X#X#XOX@XOX@X@XXXZ.{ { N N N N N N N N ",
"C.C.C.C.C.C.C.C.C.C.C.C.V.[.XXXXOX+X+X+X+X+XOXOX#X#X#X#X#X#X#X#X#XOX#X#XOXOX#X+XOXOXOXoXOXOXOXOXoXOXOXXXOX X].C.C.C.C.C.C.C.C.C.",
" X X X X X X.XXX.X X X X}.XXXXXX#X#X}.OXOX+XOXOXOXOX}.OXOXOXOXOXOXOXOXOX}.}.}.OXOX}.OXOXOXOXOXOXOXOXOXOXOXOX}..XoX.X X X{. X X X"
};
