/* XPM */
static char *_92fed83b42b4b49fed859087f25dbe29DXnHbAeczpofe58[] = {
/* columns rows colors chars-per-pixel */
"64 64 242 2 ",
"   c #0E0D0C",
".  c #150B03",
"X  c #1C0C04",
"o  c #150D0C",
"O  c #1C0E0B",
"+  c #0D1205",
"@  c #0E1608",
"#  c #1C1106",
"$  c #141609",
"%  c #1D120C",
"&  c #170D12",
"*  c #1B0E13",
"=  c #1C1312",
"-  c #181913",
";  c #210D06",
":  c #210F0B",
">  c #24120A",
",  c #29150C",
"<  c #261A0E",
"1  c #2C190F",
"2  c #221312",
"3  c #271814",
"4  c #2C1B14",
"5  c #2C1C1B",
"6  c #331D14",
"7  c #3D1C15",
"8  c #321F1B",
"9  c #14230D",
"0  c #172210",
"q  c #192313",
"w  c #1E3B18",
"e  c #2E2216",
"r  c #262619",
"t  c #3A2316",
"y  c #32221B",
"u  c #342618",
"i  c #3C251A",
"p  c #3D2A1C",
"a  c #23321B",
"s  c #3C311F",
"d  c #1C2824",
"f  c #272726",
"g  c #332321",
"h  c #3C2D24",
"j  c #342C2A",
"k  c #2A372A",
"l  c #2B3B2B",
"z  c #33392B",
"x  c #282932",
"c  c #2D3631",
"v  c #2D3B31",
"b  c #313F32",
"n  c #451B15",
"m  c #49271B",
"M  c #432B1C",
"N  c #542A1D",
"B  c #48311E",
"V  c #5A321D",
"C  c #67201E",
"Z  c #77371F",
"A  c #76391F",
"S  c #452E22",
"D  c #4B2C23",
"F  c #572C26",
"G  c #453425",
"H  c #4C3426",
"J  c #493926",
"K  c #43342A",
"L  c #4B3529",
"P  c #44392C",
"I  c #4D3B2B",
"U  c #523326",
"Y  c #5C3325",
"T  c #5A3827",
"R  c #533C2B",
"E  c #473D38",
"W  c #533E31",
"Q  c #5A3E31",
"!  c #672A23",
"~  c #732B22",
"^  c #663825",
"/  c #783724",
"(  c #743B23",
")  c #7C3E21",
"_  c #2F402C",
"`  c #2B492C",
"'  c #33442C",
"]  c #2D4333",
"[  c #354738",
"{  c #3A533C",
"}  c #3D653E",
"|  c #3D6F3D",
" . c #3F703F",
".. c #4C412B",
"X. c #58422E",
"o. c #494936",
"O. c #49463A",
"+. c #444B3A",
"@. c #554232",
"#. c #5C4231",
"$. c #5E4939",
"%. c #46563D",
"&. c #415E3D",
"*. c #56523B",
"=. c #66442A",
"-. c #73442A",
";. c #77472A",
":. c #6E522E",
">. c #674934",
",. c #654C3C",
"<. c #6A4E3B",
"1. c #65533C",
"2. c #68533A",
"3. c #6D513D",
"4. c #72553D",
"5. c #76593D",
"6. c #4A6A3D",
"7. c #647537",
"8. c #222A41",
"9. c #3A474A",
"0. c #3D5344",
"q. c #3E5C46",
"w. c #3F5D49",
"e. c #3E6346",
"r. c #3E6445",
"t. c #494C49",
"y. c #534B46",
"u. c #445443",
"i. c #4D5445",
"p. c #435C44",
"a. c #4A5A44",
"s. c #4A534C",
"d. c #415D4A",
"f. c #4D5B4A",
"g. c #515445",
"h. c #515648",
"j. c #445852",
"k. c #664F42",
"l. c #6D4E41",
"z. c #665342",
"x. c #6C5142",
"c. c #685C4B",
"v. c #735C41",
"b. c #765A47",
"n. c #73524C",
"m. c #416345",
"M. c #446C47",
"N. c #41614A",
"B. c #447445",
"V. c #486951",
"C. c #596D51",
"Z. c #4D7354",
"A. c #4D7A53",
"S. c #537857",
"D. c #686954",
"F. c #716A55",
"G. c #7A7F6F",
"H. c #7B7F70",
"J. c #823B2A",
"K. c #86472A",
"L. c #86532E",
"P. c #93522C",
"I. c #995A2E",
"U. c #87443A",
"Y. c #924E37",
"T. c #8A5B38",
"R. c #965C34",
"E. c #9C5E32",
"W. c #955A3C",
"Q. c #A15D31",
"!. c #88613F",
"~. c #986238",
"^. c #9D663A",
"/. c #9F693D",
"(. c #A66635",
"). c #A86734",
"_. c #A66836",
"`. c #A96935",
"'. c #A3653A",
"]. c #A3693A",
"[. c #803942",
"{. c #8E5549",
"}. c #A25C40",
"|. c #896346",
" X c #976947",
".X c #9C6B43",
"XX c #936B4B",
"oX c #99724D",
"OX c #886550",
"+X c #8C6B54",
"@X c #936E51",
"#X c #8F7455",
"$X c #937255",
"%X c #977755",
"&X c #A26C43",
"*X c #A26946",
"=X c #518146",
"-X c #578A5B",
";X c #5F945D",
":X c #5D8C63",
">X c #5D806F",
",X c #5F9066",
"<X c #638B66",
"1X c #658E6B",
"2X c #64926B",
"3X c #659868",
"4X c #6C9E6B",
"5X c #73976E",
"6X c #6B8674",
"7X c #7B8171",
"8X c #6A9675",
"9X c #6D9D72",
"0X c #749B74",
"qX c #749A7A",
"wX c #6BA266",
"eX c #67A169",
"rX c #6BA36C",
"tX c #70A06F",
"yX c #6CA271",
"uX c #6CA27B",
"iX c #72A373",
"pX c #74A877",
"aX c #99815D",
"sX c #AF8551",
"dX c #B58857",
"fX c #BD8D5A",
"gX c #B69A70",
"hX c #C0915D",
"jX c #C3A577",
"kX c #C2AC7D",
"lX c #83B785",
"zX c #C8AE80",
"xX c #CCB583",
"cX c #CABF86",
"vX c #D5BA85",
"bX c #D6BB88",
"nX c #D4BE8B",
"mX c #DAC18E",
"MX c #E1CB95",
"NX c #E4CF98",
"BX c #E5D099",
"VX c #DECFAE",
/* pixels */
"1.3.x.W G G u X X % 6 u e u e e r % = r t.d.w.w.d.w.d.w.e.N.e.e.e.V.j.e.e.N.e.Z.8XeXwX4X4X4X4XwX4XrXeXeXrXrXwXrXrXrXrXrXrXyX,Xr.",
"1.k.1.@.L I p X # X e r q r r a q - @ d 9.w.d.w.w.d.w.d.w.N.N.j.w.w.e.N.N.e.e.Z.0XwXrXrXwX4X4XwXwXwXrXwXrXwXrXrXrXrXrXrXrXyXrXB.",
"$.l.x.1.$.,.L X # - o.O.+.+.{ +.+.{ [ { t.d.d.d.e.j.d.w.w.d.N.N.w.N.N.j.w.e.e.Z.0XeXrXwX4X4XwX4XeXeXrXrXrXwXrXrXrXrXrXrXrXyXpXpX",
",.1.z.z.x.c.L X X < *.g.p.m.p.p.d.d.d.p.d.d.d.d.N.N.w.d.d.d.N.N.d.d.d.w.e.w.e.Z.8X9X0XeXwX4X4XrX9X9XrXeXwXwXrXrXrXrXrXrXrXyXpXlX",
"z.1.1.z.x.c.I X . > +.g.p.} m.m.N.m.d.d.d.N.j.d.V.N.N.N.N.N.N.j.d.N.N.N.N.V.m.A.qXqXqXrXrXwXwXtXuXuXwXwXrXrXrXrXrXrXrXrXrXyXpXlX",
"x.x.1.1.1.x.W < e y u z z z l l k k c c c c l c c c c b c c c b c c c c c c k ' %.%.%.%.%.&.&.&.u.Z.0X5XwXwXrXrXrXrXrXrXrXyXuXlX",
"3.z.1.1.1.x.@.p P P $ % o % o o O X O o : * o = * * = % * = * = * 2 * % : O O . X . . X # $ $ . . ' 5X0XwXwXrXrXrXrXrXrXrXrXpXlX",
"3.1.,.,.,.x.@.M K K % X o % % > % ; : : O : % % > = % O % % O : > % % % % O : # # X # X # $ # $ . ' 5X0XwXrXrXrXeXrXrXrXrXrXpXlX",
",.1.z.z.z.x.W i h g 6 3 , 8 i M n 7 h 7 , , , , , , , , , , , , , , , , , , , 4 i M M i i t 6 , , z G.S.<XqXyXrXrXeXeXeX;X,XeXpX",
",.z.1.k.x.c.I , , 4 P G F |.+X X}.{.$XOXF L I K G I L L I L L H L I L K L K G #.+X@X^.@X$X|.<.R J a @ 9 w 5XrXrXyXrXrX;X=X|  .| ",
",.z.z.1.z.z.R ; ; 1 S S F Y.'.^.'.).].+X/ G L H H H G H H H H L H H H G H G L -.~.'.^.(._./.K.V J i # . 9 5XiXiXrXrXrX-X|  . .r.",
"<.z.z.z.z.x.R > # 2 H H Y 4.^.].].).&X+X/ P H H J G L H H H H H J L H H L L U ^ |.].^.'._.oXU.m s u X . $ 6X4XtXpXuXpX;X| r.B.6.",
"z.k.k.z.k.x.I > X 1 ,.l.<.gXbXvXvXvXvXjX-.$.,.<.,.,.,.k.,.,.,.k.,.,.<.<.,.,.>.OXvXvXvXvXvXbX/.X.*.J ; X 0 7XrXrXrXyXyXeXeXeX;X .",
",.z.z.x.z.x.L ; ; , l.l.<.kXBXMXMXMXNXxX:.2.1.x.x.x.l.k.x.x.k.k.x.x.l.x.<.3.<.#XMXMXMXMXMXNX%X$.2...X . 9 7X9XtXrXrXyXrXrXpXeX=X",
"$.z.z.k.x.x.R ; X , l.l.3.kXNXMXMXMXMXxX-.2.5.3.l.3.l.l.x.l.x.l.l.l.l.3.x.3.<.#XMXMXMXMXMXMXoX=.2.J X X q 7XrXrXrXyXyXrXrXrXeX=X",
"R @.@.$.k.x.L ; X < <.3.3.kXMXMXMXMXMXxX:.3.3.4.l.x.3.3.<.l.4.<.x.4.4.<.l.3.<.#XMXMXMXMXMXMX$X>.2.J X X q 6XrXrXrXyXyXrXrXrXeX;X",
"I h G $.x.x.L X X < <.l.4.kXMXMXMXMXMXxX;.v.3.3.l.4.3.l.l.3.x.4.l.<.4.<.<.3.<.#XMXMXmXMXMXMXaX>.2.I > . 0 G.4XwXrXyXyXrXrXrXyXyX",
"E K K $.c.x.K X ; < k.l.3.kXMXMXMXMXNXxX;.1.3.4.3.4.l.4.3.3.l.4.l.4.<.4.x.<.2.#XMXMXMXMXMXNX%X:.1.X.> . 0 G.tXwXrXyXrXyXrXyXrXyX",
"h h h R $.Q h ; ; 3 l.x.4.zXMXMXMXmXMXxX5.2.1.3.x.4.3.l.3.l.4.l.3.x.4.<.l.3.<.#XMXMXMXMXMXMXoX:.1.I > . 0 G.9XrXrXrXrXrXyXrXrXyX",
"e e e 6 8 8 6 ; X 3 <.x.3.jXMXMXMXMXMXxX2.5.1.5.x.<.3.3.3.l.<.l.3.l.3.x.3.3.<.#XMXMXMXMXMXMXaX2.1.I > . 0 7XtXrXeXrXyXrXyXrXrXiX",
"g r y 8 5 e , X X < l.l.3.kXMXMXMXMXMXmX2.v.2.4.<.3.3.3.l.4.l.3.x.4.l.<.3.3.<.#XMXMXMXMXMXMXaX$.1...> X 0 G.tXwXrXeXrXrXrXrXrXrX",
"r r r a q k a . X < k.l.2.kXMXMXMXMXMXkX1.1.1.1.1.3.3.l.l.x.l.x.l.x.3.x.l.4.<.$XMXMXmXMXMXNXsX4.1.J X X - G.tXtXrXrXrXrXrXrXrXrX",
"i.u.u.u.%.%.k + X < <.x.2.kXNXMXMXmXNXcX7.=.2.1.1.3.<.l.x.l.x.l.l.x.3.k.x.3.:.#XMXMXMXMXMXNX.X=.2...> # q G.tXrXeXrXeXrXrXrXrXrX",
"a.d.a.p.p.a._ + # < z.x.$.kXNXMXMXMXBXkX:.:.5.1.4.v.x.4.n.x.l.n.x.l.3.1.z.1.<.#XMXMXMXMXMXNX%X>.2...# . 0 G.iXwXrXrXrXrXrXrXpXrX",
"{ p.p.d.d.d.' + # < z.c.1.kXBXNXMXMXNXcX7.v.4.v.5.x.x.x.l.l.x.x.x.x.x.z.x.3.3.$XMXMXMXMXNXBXaX3.1...$ . 9 G.tXrXrXeXrXrXrXrXrXrX",
"m.d.p.p.d.d.' @ $ % @.X.X.%XfXfXfXfXfXsX:.T ..X.X.@.#.#.Q Q Q Q Q Q #.Q #.#.=.T.fXfXfXfXfXfX~.X...B < . - 7XtXrXeXeXeXrXrXrXrXrX",
"e.p.q.r.m.N.` @ @ % G G M L.(.(.(.(.).I.V B B M G H H H H H H H U H U U U H N -.~.(.(.(.(.(.;.H s i < # q H.rXrXeXrXrXrXrXrXrXrX",
"d.q.w.m.p.V.' $ % % s B N L.^.).(._._.R.Y B s i p M M M M M M h S D M M B D D ( (.(.(.`.`.(.;.B B p # X 0 H.iXrXrXrXrXeXyXrXrXrX",
"w.q.p.p.u.f.[ $ , 3 $.W -.b.~.`.(.).(.~.;.T >.2.5.v.v.v.5.v.v.v.v.b.D.b.3.,.-.L./.(.(.(.(.].P.:.,.I % # q H.iXrXrXrXuXrXyXrXrXrX",
"w.m.d.d.a.d.] @ ; 8 +X$X|.@X&X)._.).(.(.^.!.oXcXBXMXNXMXMXNXMXMXNXMXVXBXgXXX X.XoX(.).(.(.(.(..X%X3.< % q 7X0XrXeXeXrXeXrXrXrXrX",
"e.e.d.w.w.j.] + % 4 5.$X'.(.(.(.(._.)._.).^.^.vXMXMXMXMXMXMXMXMXNXMXMXNXhX(.^.'.(.(.).).(.(.).].^.-., > q 7XrXeXrXeXrXuXrXyXyXrX",
"m.m.N.e.w.w.] + 2 i R.OX~.'.(.Q.Q.)._.Q.E.~.#XkXmXmXnXnXmXmXcXnXnXnXbXmXdXI.~.~.(.(.Q.~.(.(.Q. XXX-.X > q 6XyXeXrXrXrXrXrXrXrXrX",
"w.e.w.{ 9.] d   * = t 6 M ^ ) J.Z P.I./ F S h ( {.U.^ I O.O.P E H X.-.K.V M t N ! ;.Z K.Z ) Z n t t * > r qX0X4XrXyXrXrXrXyXrXrX",
"e.w.e.` l 9.k @ & 2 6 , N ! ( P.K.~ / Z ! g h [.J.^ D h j j x j p #.( Z V u i F Y Z Z Z I.J.N 7 6 4 * O - H.0XrXyXrXrXrXrXrXrXrX",
"e.d.j.] ] ] f   o & 6 4 7 T ~ / J.Z ~ / ! 5 g ^ J./ ! D x x x 5 g k./ P.J.n 4 m Z Z Z Z Z Z ~ n 4 3 o & f H.uXqX9XrXrXrXrXrXrXrX",
"w.a.N.[ v ] k   & & 8 8 4 ;.I.I.I.I.Q.Y.C 5 K L.J.Y./ D j x 8.x h F.W.'.J.C N T |.I.I.R.P.I.^ 7 y 5 . + 3 C.S.S.,XyXrXrXrXrXrXrX",
"N.a.d.[ k ] a   O = 8 8 6 ;.}.`.).).).Q.! p G T.}.}.;.7 f x c x K +X&X).K.! F Q #X).`.`.`.`./ 7 5 5 . o o *.m.m.,XrXrXrXrXrXrXrX",
"m.p.w.] ` ` d 9 X = 8 6 e {.*X).).).).E.V M H T.`.*X=.5 f x g x K F.].).K.! F ^ .X(.(.(.].].( n 4 5 O X o t.N.N.,XrXrXrXrXrXrXrX",
"A.S.S.0.{ 0.f @ o = y t t b.&X).(.).).E.A i H T..X.XL.=.=.$.E =.Q {.'.(.;.! F T ~.(.`.(.`.].^ i 8 5 * X - s.d.N.,XrXrXrXrXrXrXrX",
"rXyXpXZ.w.m.` + o & e 8 e b.*X`.`.`.(.R.A m H R.oX].`.(.&X].oX'.`.(.).).=.N V Q |.(.(.(.`.]./ n 4 5 * o = i.d.N.,XyXyXrXyXrXrXyX",
"rXrXrXZ.d.d._ + o = 4 y 3 b.&X`.(.(.].R.~ M D W..X'.(.*XoX].]./.].(.].].;.G N ;.@X).).).(.].^ 6 8 5 O * 2 O.m.N.,XyXyXyXrXrX9XrX",
"rXyX0XZ.w.d.b o O > 8 6 6 b.&X`.(.`.(.~.A p H b.+X X|.|. X+X@XOX'.E.|..X-.H M T /.).).].`.].) n 4 5 * X 3 y.d.j.,XyXrXrXrXrXrXtX",
"yXyXtXZ.p.d.b + = 2 8 u t b.&X`.(.'.`.R.^ H H Y Y ( Y V ^ N ( ^ A ~ D ^ V G H R @X_.).).(.].V 6 8 5 * O = y.d.V.,XyXrXyXrX4X4XrX",
"rX4XrXZ.w.m._ + o > g 6 t v.*X`.`.(.(.R.( D H H H U U H D H M H M D U U H H D =.^.)._.).(.].) n 5 5 2 * = y.d.d.,XrXrXrXyXyXrX4X",
"4XyXrXZ.d.d.] 9 < 2 y 5 u b.*X(.).).].R.! G G H H H H U U H H H H U H U L H S R @X).)._.).^.^ 6 8 8 3 * 3 i.d.w.:XrX4XrXrXrXrX4X",
"9XrXrXA.e.d.q.{ [ b 3 % , v.*X`.).).).E.~ H H H U H U H H H H H H H J H B G V -.|.)._.).).].V 1 1 f E [ [ a.d.e.<X0XyXrXrX9X9XrX",
"rXrXrXA.e.e.w.d.f.u.% . : v.*X`.).).`.Q.~ M U U U H H U U H J H J H I J G G H =.XX_._.).)._.T , X f s.t.p.d.m.w.:X4X4XrXrXrXrXtX",
"rXrXrXA.r.} } p.f.{ - $ = y.+XoX X|.XXT.X.S J P P P G K P P P P P z P P P I G ..OXoX!.oX!.!.J # . f j.t.&.q.} w.:XyXrXrXyXrXrXrX",
"rXyXyX:X-X-Xe.r.e.q.] v v t.D.F.c.x.b.x.o.o.o.o.+.+.o...+.O.O.+.O.+.O.O.+.O.O.*.c.D.c.D.c.c.O.k k [ u.0.} m.S.S.4X9XrXtXrXrXwXtX",
"rX9XeXyXuXuX:Xr.e.q.w.w.j.V.h.t.g.g.O.*.*.&.g.g.a.a.i.i.a.h.i.p.i.a.i.h.a.i.h.h.N.%.g.p.a.i.s.w.p.p.u.0.r.:X9X0X9XyXrXrXrXrXrXrX",
"eXeXyXyXyXyX;Xr.w.e.w.e.d.d.j.d.w.j.j.w.p.u.d.d.a.d.d.d.w.w.a.d.a.w.d.d.d.d.d.N.d.d.w.w.e.w.w.w.e.e.q.{ e.uX9XyXrXrX4XyXrXiXrXrX",
"yXyXyXyXyXpX,Xe.V.V.V.V.V.d.d.d.j.j.p.w.p.p.m.w.w.w.w.w.w.j.w.w.d.w.d.u.d.d.d.d.N.p.w.e.w.e.w.e.M.M.B.V.=X8X9XyXiXrXrX4XwXrXrXrX",
"rXrXrXyXyXyXuXeX9X4X4X9X8XZ.p.w.w.e.w.w.q.e.r.e.q.q.p.e.d.e.m.N.w.e.e.d.&.m.m.q.m.d.w.w.e.e.,X2X3X9X4X9XyXrXrXyXrXrXrXrXrXrXrXrX",
"eXyXyXeXeXyXrXrX9X0X9XyX0XZ.e.p.0.0.e.w.} e.} e.&.r.m.m.r.p.m.&.w.p.w.N.&.} r.&.p.m.N.e.e.e.>XuX9X9X4XyXrXyXrXyXrXyXrXyXrXrXrXrX",
"rXeXyXyXuXrXrXrX4XeXrXwX0XA.e.e.e.e.e.e.r.r.e.e.m.} } m.r.} m.m.} m.r.r.} } e.e.e.e.N.e.e.B.eXrXrX9XrXrXyXrXrXrXrXrXrXrXrXrXrXrX",
"rXyXyXeXeXeXrXrXrXwXrXwXrX3X1X1X2X2X2X2X,X,X3XeX2X1X1X1X1X<X2X1X<X1X2X2X2X2X2X2X2X6X1X6XeXeXeXrXrXrXrXrXrXrXrXrXrXrXrXrXrXrXrXrX",
"rXrXrXrXrXrXrXrXrXwXrXrXrXiXrXyXrXpXrXrXrXpXrXrXrXrXpXrXrXpXrXrXrXyXyXiXrXrXiXrXrXrXrXlXeXrXrXrXwXwXrXrXrXrXrXrXrXrXrXrXrXrXrXrX",
"rXrXrXrXrXrXrXrXrXrXrXrXrXrXrXrXrXrXrXrXrXrXrXrXrXrXrXrXrXrXrXrXrXrXrXrXrXrXrXrXrXrXrXrXrXrXrXwXrXwXpXrXrXrXrXrXrXrXrXrXrXrXrXrX",
"rXrXrXrXrXrXrXrXrXrXrXrXrXrXrXrXrXrXrXrXrXrXrXrXrXrXrXrXrXrXrXrXrXrXrXrXrXrXrXrXrXrXwXwXrXrXrXrXrXwXrXrXwXrXrXrXrXrXrXrXrXrXrXrX",
"rXrXrXrXrXrXrXrXrXrXrXrXrXrXrXrXrXrXrXrXrXrXrXrXrXrXrXrXrXrXrXrXrXrXrXrXrXrXrXrXwXwXwXlXrXwXwXrXrXrXrXrXwXrXwXrXrXrXwXwXrXrXrXrX",
"rXrXrXrXrXrXrXrXrXrXrXrXrXrXrXrXrXrXrXrXrXrXrXrXrXrXrXrXrXrXrXrXrXrXrXrXrXrXrXrXrXrXrXwXrXrXrXwXwXwXwXwXrXrXrXwXwXrXwXrXrXrXrXrX",
"rXrXrXrXrXrXrXrXrXrXrXrXrXrXrXrXrXrXrXrXrXrXrXrXrXrXrXrXrXrXrXrXrXrXrXrXrXrXrXrXrXrXrXrXrXwXrXrXlXwXwXwXrXrXrXwXrXrXrXrXrXrXrXrX",
"rXrXrXrXrXrXrXrXrXrXrXrXrXrXrXrXrXrXpXrXrXrXrXrXrXrXrXrXrXrXrXrXrXrXrXrXrXrXrXrXrXrXrXrXrXrXrXrXrXrXwXrXrXwXrXrXrXwXrXrXrXrXrXrX",
"rXrXrXrXpXrXrXrXrXrXrXrXrXrXrXrXrXrXrXrXrXrXrXrXrXrXrXrXrXrXpXrXrXrXrXrXrXrXrXrXrXrXrXrXwXrXwXrXrXrXrXwXrXwXrXwXrXrXrXrXrXrXrXrX"
};
