/* XPM */
static char *result[] = {
/* columns rows colors chars-per-pixel */
"64 64 22 1 ",
"  c #6B4F3C",
". c #6C503D",
"X c #70533F",
"o c #6F5540",
"O c #725642",
"+ c #765A45",
"@ c #795C47",
"# c #765B49",
"$ c #795E4A",
"% c #7E624D",
"& c #7F6651",
"* c #81644E",
"= c #88664C",
"- c #8A694F",
"; c #836651",
": c #866953",
"> c #8A6D56",
", c #8B6E59",
"< c #8D7057",
"1 c #8E715B",
"2 c #91745D",
"3 c #937760",
/* pixels */
"2222222222222222222222222222222222222222222222222222222222222222",
"2222222222222222222222222222222222222222222222222222222222222222",
"2222222222222222222222222222222222222222222222222222222222222222",
"2222222222222222222222222222222222222222222222222222222222222222",
"2222222222222222222222222222222222222222222222222222222222222222",
"2222222222222222222222222222222222222222222222222222222222222222",
"2222222222222222222222222222222222222222222222222222222222222222",
"2222222222222222222222222222222222222222222222222222222222222222",
"2222222222222222222222222222222222222222222222222222222222222222",
"22,2122222222222222222222222222222222222222222222222222222222222",
"$$*$*;2222222222222222222222222222222222222222222222222222222222",
" X  X@:222222222222222222222222222222222222222222222222222222222",
" . ..O@>22222222222222222222222222222222222222222222222222222222",
".......*22222222222222222222222222222222222222222222222222222222",
" . . .+-22,,,1<2222222222222222222222222222222222222222222222222",
"...X.+:222>@@@@*122222222222222222222222222222222222222222222222",
"X..O+%131>%... O%12222222222222222222222222222222222223222222322",
"OOoO:113>%. ....X;2222222222222222222222222222222222222222222222",
"*:&;1133>#.......*2222222222222222222222222222222222222222222222",
"111223132;X.....@-<222222222222222222222222222222222222222222222",
"222212322<=XXXX*-22222222222222222222222222222222222222222222222",
"2,>*$,,22<<=*==-222222222222222222222222222222222222222222222222",
"3,$O.*,22222-<2<222222222222222222222232222222222222222222232222",
"3,;. @,222222222222222222222222222222222222222222222222222222222",
"22:*@;22222222222222222222222<2222222222222222222222222222222222",
"222,<<2222222222222222222222222222222222222222222222222222222222",
"22222222222222222222222222222222222222222222222<2222222222222222",
"2222222222222222222222222222222222222222222222222222222222222222",
"2222222222<2222222222222222222222222222222222222222<222222222222",
"2222222222222222222222222222222222222222222222222222222222222222",
"222222222222222222222<222222222222222222222222222222222222222222",
"2222222222222222222222222222222222122222222222222222222222222222",
"2222222222222222222222222122131321222222222222222222222222222222",
"2222222222222222222222223322313122222232222232222222222222222222",
"2222222222222222222222221212131322222222222222222222222222222222",
"2222222222222222222223,;;;;,223122222222222222222222222222222222",
"222222222222222222222,#O..X%,1133113222<,,1222322222222222222222",
"22222222222222222222>@.    O%,31131123<&+%&223<22222222222222222",
"22222222222222222211;X     .o&12313323>+.X&122222222222222222222",
"22222222222222222222;O.    .%&32112223,#.O&<22222222222222222222",
"22222222222222222221,;@ .  %%<223333333&&&<322222222222222222222",
"222222222222222222222,*O+X+&2<>>&&&,&,<,312122222222222222222222",
"2222222222222222222222,>-<>2>%..oo#ooo$&212222222222222222222222",
"22222222222222222222222222%%%      o ..#&12222222222222222222222",
"222222222222222222222222<=OX.           $13213222222222222222222",
"22222222222222222222222,*X.... .. . ... #13312222222222222222222",
"22222222222222222222222>XX.........  ...#<3232232222222222222222",
"22222222222222222222222>X . .....    .  $<3122212222222222222222",
"22222222222222222222222<X  ...       ...*22222222222122132313132",
"22222222222222222222222-* . .   .    ..+=22222222222333222131322",
"22222222323322222322222<*X.... X... ..+*>22222222222312231311313",
"22222223222222222222222<=X..    .  ..X*<222222222222132313133222",
"222222222222222222222222<=@@@OX@XOO%@-22222222222222222222221232",
"2222222222222222222222222<,>,>><<<;-,,<2222322232222222222223222",
"2222222222222222222222222222222<22222222222222222222222222222222",
"2222222222222222222222222222222222222222222222222222222222222222",
"2222222222222222222222222222222222222222222222222222222222222222",
"2222222222222222222222222222222222222222222222222222222222222222",
"2222222222222222222222222222222222222222222222222222222222232222",
"2222222222232222222222222222222222222222232222222222222222222222",
"2222222222222222222222222222222222222222222222222222222222222222",
"2222222222222222222222222222222222222222222222222222222222222222",
"2222222222222222222222222222222222222222222222222222222222223222",
"2222222323222222222322222222222222222222222222222222222222231222"
};
