/* XPM */
static char *result[] = {
/* columns rows colors chars-per-pixel */
"64 64 192 2 ",
"   c #010101",
".  c #090604",
"X  c #060A07",
"o  c #0D0906",
"O  c #060B0B",
"+  c #090D0A",
"@  c #110B07",
"#  c #130D09",
"$  c #1B0F0C",
"%  c #0C120D",
"&  c #15120C",
"*  c #1A110C",
"=  c #060913",
"-  c #080D1A",
";  c #0A101E",
":  c #191711",
">  c #191513",
",  c #151A12",
"<  c #251911",
"1  c #2A1D13",
"2  c #281914",
"3  c #162218",
"4  c #19251A",
"5  c #1C2B1D",
"6  c #2E2116",
"7  c #25241A",
"8  c #23291C",
"9  c #2B2C1E",
"0  c #352417",
"q  c #382517",
"w  c #362619",
"e  c #392719",
"r  c #37281A",
"t  c #3C291B",
"y  c #0C1422",
"u  c #1C1E29",
"i  c #1F2F21",
"p  c #2C2D23",
"a  c #262B28",
"s  c #352821",
"d  c #3C2C23",
"f  c #3C2F2A",
"g  c #223323",
"h  c #253827",
"j  c #25362D",
"k  c #253928",
"l  c #39322A",
"z  c #293D32",
"x  c #3B3534",
"c  c #412D1E",
"v  c #45301F",
"b  c #432F20",
"n  c #453121",
"m  c #4B3623",
"M  c #4F3825",
"N  c #44362C",
"B  c #493828",
"V  c #4D3C2A",
"C  c #523B27",
"Z  c #543D2B",
"A  c #583F2E",
"S  c #473A36",
"D  c #2B412E",
"F  c #2F4732",
"G  c #2D4238",
"H  c #324631",
"J  c #314B34",
"K  c #30473C",
"L  c #344A3E",
"P  c #37533A",
"I  c #39553C",
"U  c #3B5A3F",
"Y  c #5A412D",
"T  c #504237",
"R  c #5D4532",
"E  c #5D4835",
"W  c #534439",
"Q  c #5C493A",
"!  c #614734",
"~  c #664B36",
"^  c #644B3B",
"/  c #6A4E3A",
"(  c #70533E",
")  c #111E50",
"_  c #13225B",
"`  c #272846",
"'  c #282F57",
"]  c #263053",
"[  c #192A65",
"{  c #1F356E",
"}  c #2B3A68",
"|  c #243B78",
" . c #3D4F42",
".. c #3D5143",
"X. c #3C5A43",
"o. c #3E5B4D",
"O. c #3F6043",
"+. c #3C4766",
"@. c #2C427D",
"#. c #3D517F",
"$. c #444545",
"%. c #44454A",
"&. c #425444",
"*. c #435C42",
"=. c #405F4F",
"-. c #58534D",
";. c #6A5643",
":. c #745641",
">. c #7B5C47",
",. c #725E4B",
"<. c #7C5E4A",
"1. c #6B5E55",
"2. c #426345",
"3. c #456949",
"4. c #496E4D",
"5. c #4B714F",
"6. c #426250",
"7. c #466854",
"8. c #4C7451",
"9. c #4F7854",
"0. c #4D7258",
"q. c #517A57",
"w. c #537D5C",
"e. c #75614C",
"r. c #776450",
"t. c #85644D",
"y. c #89674F",
"u. c #8D6A52",
"i. c #926E55",
"p. c #85725F",
"a. c #947056",
"s. c #957158",
"d. c #9B765C",
"f. c #9D785E",
"g. c #A07A5F",
"h. c #8A7B68",
"j. c #A47D62",
"k. c #56835B",
"l. c #59875F",
"z. c #5A885F",
"x. c #578360",
"c. c #598561",
"v. c #5D8C64",
"b. c #5F9065",
"n. c #609266",
"m. c #639669",
"M. c #65996B",
"N. c #689E6E",
"B. c #8F816C",
"V. c #96836C",
"C. c #9E917A",
"Z. c #A68166",
"A. c #A4816A",
"S. c #A88368",
"D. c #AB8A6F",
"F. c #A08E76",
"G. c #AB8C73",
"H. c #A3927A",
"J. c #A8957D",
"K. c #284386",
"L. c #2C498B",
"P. c #3D5383",
"I. c #3C568A",
"U. c #3D5891",
"Y. c #33559C",
"T. c #36599A",
"R. c #3B5C9D",
"E. c #3D60A4",
"W. c #3C64AE",
"Q. c #3D66B1",
"!. c #485A88",
"~. c #415D96",
"^. c #938987",
"/. c #8E8C93",
"(. c #929198",
"). c #AC9C83",
"_. c #A99B8F",
"`. c #A39C9C",
"'. c #B6A186",
"]. c #B2A389",
"[. c #B9A58A",
"{. c #BAA98E",
"}. c #AFA392",
"|. c #BDAD93",
" X c #B5AA98",
".X c #9295A0",
"XX c #A59FA2",
"oX c #AAA8AC",
"OX c #A2A5B1",
"+X c #A5A8B4",
"@X c #A8A9B1",
"#X c #C0B094",
/* pixels */
"M.M.M.M.M.M.M.M.M.M.M.M.M.M.M.M.M.M.M.M.M.M.m.m.N.M.M.M.M.M.M.M.M.M.M.M.M.M.M.M.M.M.M.M.M.M.M.M.M.M.M.M.M.M.M.M.M.M.M.M.M.M.M.M.",
"M.M.M.M.M.M.M.M.M.M.M.M.M.M.M.M.M.M.N.M.N.M.N.M.M.M.N.M.M.M.M.M.N.M.M.M.N.M.M.M.M.M.M.M.M.M.M.M.M.M.M.M.M.M.M.M.M.M.m.M.M.M.M.M.",
"M.M.M.M.m.M.M.M.M.M.M.M.M.M.M.m.b.v.n.v.b.b.b.b.v.v.v.b.m.M.M.n.b.b.b.v.b.n.m.M.M.M.M.M.M.M.M.M.M.M.M.M.M.M.M.M.M.M.M.M.M.M.M.M.",
"M.M.M.M.M.M.M.M.M.M.M.M.M.M.M.q.k 5 g i g 5 g 5 8 g g g 3.m.M.4.g 5 g i i F v.M.M.M.m.M.M.M.M.M.M.M.M.M.M.M.M.M.M.M.M.M.M.M.M.M.",
"M.M.M.M.M.M.M.M.M.M.M.M.M.M.M.4.+                       P m.M.U           3 z.M.m.M.M.M.M.M.M.m.M.M.M.M.M.M.M.M.M.M.M.M.M.M.M.M.",
"M.M.M.M.M.M.M.M.M.M.M.M.M.M.M.4.+       . X           . P v.v.P X         3 k.b.b.b.b.b.m.M.M.M.M.M.M.M.M.M.M.M.M.M.M.M.M.M.M.M.",
"M.M.M.M.M.M.M.M.M.M.M.M.M.M.M.4.+   . 6 e r r r t 6 1 1 8 g g 9 r t 2     X 5 g g g g k 9.M.M.M.M.M.m.M.M.M.M.M.M.M.M.M.M.M.M.M.",
"M.M.M.M.M.M.M.M.M.M.M.M.M.M.M.4.+   o m C C C C C c e e *     < C Z r                 X 3.M.M.M.M.M.M.M.M.M.M.M.M.M.M.M.M.M.M.M.",
"M.M.M.M.M.M.M.M.M.M.M.M.M.M.M.4.+   o v M M C C C c t t $ .   < C C r .   .     .     + 2.b.b.m.M.M.M.M.M.M.M.M.M.M.M.M.M.M.M.M.",
"M.M.M.M.M.M.M.M.M.M.M.M.M.M.M.4.+     * * < n C C m m m e < 1 e C C v 1 < 1 e r e w r r p g h 4.M.M.M.M.M.M.M.M.M.m.M.M.M.M.M.M.",
"M.M.M.M.M.M.M.M.M.M.M.M.M.M.N.4.+         . v C C C C C v c e v C C m t e c C Z C C Z C *     U M.M.M.M.M.M.M.M.M.M.M.M.M.M.M.M.",
"M.M.M.M.M.M.M.M.M.M.M.M.m.n.n.3.+         o n C C C C C c t c b C C m t c v v C C Z C m :   . I m.b.m.M.M.M.M.M.M.M.M.M.M.M.M.M.",
"m.M.M.M.M.M.M.M.M.M.M.M.4.h g 8 1 1 1 0 e c M C C C C C C m m C C C C m m m C C C C C C c e e 9 g g 2.m.M.M.M.M.M.M.M.M.M.M.M.M.",
"M.M.M.M.M.M.M.M.M.M.M.M.U     @ 0 e c C C C C C C C C C C C C C C C C C C C C C C C C C C C C <     J m.M.M.M.M.M.M.m.M.M.M.M.M.",
"M.M.M.M.M.M.M.M.M.n.v.v.I X   # e t c M C C C C C C C C C C C C Z C C C C C C C C Z C C C Z C < .   F b.b.b.M.M.M.M.M.M.M.M.M.M.",
"M.M.M.M.M.M.M.M.M.O.5 5 7 1 1 0 m m m C Z C C C Z C C C C C C C C C C C C Z C C C C C C C C C v t r 9 5 5 P b.M.M.M.M.M.M.M.M.M.",
"M.M.M.M.M.M.M.M.m.F     # e t c C C C C C C C C C C C C C C C C C C C C C C C C C C C C C C C C Z C 6     h v.M.M.M.M.M.M.M.M.M.",
"M.M.M.M.M.M.M.M.m.F     * e t c C C C C C C C C C M C C C C C C C C C M C C M M C C C C C C C C C C 1     h b.M.M.M.M.M.M.M.M.M.",
"M.M.M.M.M.M.M.M.m.F     $ e e c M C C C C C n c c m C C C C C C C C M c c c b c n C C C C C C C C C 6     h v.M.M.M.M.M.M.M.M.M.",
"M.M.M.M.M.M.M.M.m.F     & e e c M C C C C M c t c m C C C C C C C C m t t t t q c M C C C C C C C C 1     k n.M.M.M.M.M.M.M.M.M.",
"M.M.M.M.M.m.M.M.m.F     $ e t c M C M M C m c e e m C C C C C C C C M t t t c b b C A A C M C C C C 6   . h l.v.b.M.M.M.M.M.M.M.",
"M.M.M.M.M.M.M.M.m.F     # e t t c c c c c c t t c m C C C C C C C C m t t M >.t.t.y.y.y.A c c m C C t 1 1 7 g 8 F v.M.M.M.M.M.M.",
"M.M.M.M.M.M.M.M.m.F     $ e t t t t t t t e t t c b C C C C C C C C m t t C s.j.j.j.j.g.A t t n C C n t t <     4 z.M.M.M.M.M.M.",
"M.M.M.M.M.M.M.M.m.F     # e e t t t t e t t t e c m C C C C C C C M m b c A d.j.j.j.j.g.~ c c n C C v t t <     3 z.M.M.M.M.M.M.",
"M.M.M.M.M.M.M.M.n.F     * e t c n m m t e e t e c m M C C C C m c c A t.t.u.j.j.j.j.j.j.i.t.t.! c c c e e <     4 c.M.m.M.M.M.M.",
"M.M.M.M.M.M.M.M.m.H     # e e c C C m c e q t e t m C C C C C m t e A j.j.j.j.j.j.j.j.j.j.j.j.^ e t e t t 1     5 z.N.M.M.M.M.M.",
"M.M.M.M.M.M.M.M.m.F     $ w t c M C M c c c v v v m C M C C C m b c ! s.d.d.j.j.S.Z.j.j.f.s.s.R q 0 q t t < .   3 z.M.M.M.M.M.M.",
"M.M.M.M.M.M.M.M.m.F     $ q t c M C C m v C t.u.t.A c c m C C / y.u.:.b d Q J.'.'.'.'.).;.d b 2 o @ < t e <     4 c.N.m.M.M.M.M.",
"M.M.M.M.M.M.M.M.m.F     # e t c C C C C C A s.j.g.Y e c v C C :.j.j.:.< $ N _.#X|.|.|.].W $ $ o     * r t <     5 z.M.M.M.M.M.M.",
"M.M.M.M.M.M.M.M.m.F     * e t c M M C C C Y s.j.d.~ b b m C C :.j.j.<.2 $ N ).#X|.|.|.].W $ $ o     * e 0 1 + + g c.M.M.M.M.M.M.",
"M.M.M.M.M.M.M.M.m.F     $ e e t c c c M C Y s.j.j.i.y.y.! c c ,.'.[.p.2 $ N ).{.|.|.|.'.W $ * o     . o o g 3.5.9.n.M.M.M.M.M.M.",
"M.m.M.M.M.M.M.M.m.F     & e e t t t c M C Y s.j.j.j.j.g./ e e ,.{.#Xh.2 $ N ).|.|.|.|.'.W $ $ o           h n.N.M.M.M.M.M.M.M.M.",
"M.M.M.M.M.M.M.M.M.J % + : 0 0 w e t c m C Y a.j.j.j.j.g.( n n r.{.#Xh.f 6 W _.#X|.|.|.].-.2 2 #     X O + D n.M.M.M.M.M.M.M.M.M.",
"M.M.M.M.M.M.M.M.M.k.4.5.H & @ * e e t c c m i.j.j.j.j.g.s.t.t.A. X|.'.h.h.H.[.|.|.|.|.[.s.t.<.s     h 4.5.w.n.M.M.M.M.M.M.M.M.M.",
"M.M.M.M.M.M.M.M.M.M.N.M.U     @ 0 t t e e n i.j.j.j.j.j.j.j.j.G.#X|.#X#X|.|.|.|.|.|.|.{.D.j.j.N     J M.M.M.M.M.M.M.M.M.M.M.M.M.",
"M.M.M.M.m.M.M.M.M.M.M.M.2.% + & 0 e e r e n y.d.d.d.d.d.f.f.f.G.[.{.[.{.|.[.|.[.{.{.{.[.G.j.j.N     J M.M.M.M.M.M.M.M.M.M.M.M.M.",
"M.M.M.M.M.M.M.M.M.M.M.M.z.5.5.P & o * 0 t t Z A A A A A A A C <.D.D.D.D.D.D.D.D.A.G.D.G._.`.`.$.    J m.M.M.M.M.M.M.M.M.M.M.M.M.",
"M.M.M.M.M.M.M.M.M.M.M.M.M.M.N.4.X     0 t t e e e e e e t q t ~ g.j.j.j.j.j.j.j.j.j.j.j.`.+XOX%.    J m.M.M.M.M.M.M.M.M.M.M.M.M.",
"M.M.M.M.M.M.M.M.M.M.M.M.M.M.M.5., + & 6 e 0 t t c t t t c t c ~ d.g.d.d.f.f.f.s.d.j.A.j.`.+XOX%.    J m.M.M.M.M.M.M.M.M.M.M.M.M.",
"M.M.M.M.M.M.M.M.M.M.M.M.M.M.M.v.9.9.2., o # c M m m m M m m m A ~ ~ ~ ~ ~ ! A Z ;.^.XXXXOX+XOX%.    J m.M.M.M.M.M.M.M.M.M.M.M.M.",
"M.M.M.M.M.M.M.M.M.M.M.M.M.M.M.N.N.N.k.,   . v C C C C C C C C C M C M C C m t e N /.+X+X+X+XOX%.    J n.M.M.M.M.M.M.M.M.M.M.M.M.",
"M.M.M.M.M.m.M.M.M.M.M.M.M.M.M.n.v.c.8.,   # v Z C C C M C C C C C C A Y R R B m Q (.@X@X@X+XOX%.    J M.M.M.M.M.M.M.M.M.M.M.M.M.",
"M.M.M.M.M.M.M.M.M.M.M.M.M.M.M.9.5 3 4 t t v M C M v c c m C C C C C ( F.H.H.C.H.H. X X XoX+XOX%.    J M.M.M.M.M.M.M.M.M.M.M.M.M.",
"M.M.M.M.M.M.M.M.M.M.M.M.M.M.N.4.+   o v Z C C C M c e t n C C C C C e.{.|.#X|.|.|.|.|.|.oX+X+X%.    J n.M.M.M.M.M.M.M.M.M.M.M.M.",
"M.M.M.M.M.M.M.M.M.M.M.M.n.z.z.2.& . & n C C C M M c t t n M M Z Y R r.J.].).).).].|.|.|.(..X(.%.% % P m.M.M.M.M.M.M.M.M.M.M.M.M.",
"M.M.M.M.M.M.M.M.M.M.M.M.3.5 4 8 t t c C C C v c c t e t t c c ;.F.H.h.^ E E E E ;.J.|.].-.j a X.5.8.l.M.M.M.M.M.M.M.M.M.M.M.M.M.",
"M.M.M.M.M.M.M.M.M.M.M.m.U .   & B Y C C C M t t t t t t t t w ,.{.|.V.c r r t e N H.|.].N     U M.N.M.M.M.M.M.M.M.M.M.M.M.M.M.M.",
"M.M.M.M.M.M.M.M.M.M.M.m.U X   & v M M C M M c t t d f f l f f 1.}.}.h.l d s e 0 B B.).C.x % % 2.M.M.M.M.M.M.M.M.M.M.M.M.M.M.M.M.",
"M.M.M.m.M.M.M.M.M.M.M.M.U .   @ t c c c c c t t t +.I.I.I.I.I.!.!.!.!.} } ] & o $ 7 p p *.8.8.c.M.M.M.M.M.M.M.M.M.M.M.M.M.M.M.M.",
"M.M.M.M.M.M.M.M.M.M.M.M.U X   @ 0 t e t e e e t d #.Q.Q.Q.Q.Q.Y.K.K.K.K.K.{ =         X 3.N.N.M.M.M.M.M.M.M.M.M.M.M.M.M.M.M.M.M.",
"M.M.M.M.M.M.M.M.M.m.m.n.U X   @ e c c c t t f f x P.Q.W.Q.W.W.Y.@.@.| @.@.} % . .     X 2.N.M.M.M.M.M.M.M.M.M.M.M.M.M.M.M.M.M.m.",
"M.M.M.M.M.M.M.M.M.w.7.7.z     # v C v v v Y #.I.U.E.Q.W.Y.L.L.| [ [ ' $.S N n c r o   O 3.M.M.M.M.M.M.M.M.M.M.M.M.M.M.M.M.M.M.M.",
"M.M.M.M.M.M.M.M.M.w.o.o.j     * m Z C C C T ~.Q.W.Q.Q.W.Y.K.K.| _ _ ` Z C C C C n #   O 3.N.M.M.M.M.M.M.M.m.M.M.M.M.M.M.M.M.M.M.",
"M.M.M.M.M.M.n.b.b.0.o.o.j     & m C C C C T I.E.R.R.T.T.K.| | [ ) ) ` B M M C C n #   X 2.n.b.m.M.M.M.M.M.M.M.M.M.M.M.M.M.M.M.M.",
"M.M.M.M.M.m.w.7.7.6.o.o.j     & m C C C C C N x x u y y ; - - = = = > d c c C C n #   . K 7.7.x.M.M.M.M.M.M.M.M.M.M.M.M.M.M.M.M.",
"M.M.M.M.M.m.0.o.o.o.o.o.j     * m Z C C C M t e 0 @                 @ q t c M Z n +     z o.o.w.M.M.M.M.M.M.M.M.M.M.M.M.M.M.M.M.",
"M.M.M.M.M.m.0.o.o.o.o.o.z O O , S Y T V C T n d s , O O O O O = O O > t d n V T N , O % G o.o.x.M.M.M.M.M.M.M.M.M.M.M.M.m.M.M.M.",
"M.M.M.M.M.m.0.o.o.o.o.o... .K  .&.=.I &.&.X.$.I ..L K  .K G  .X.K K L  .....W &... .K K ..o.o.x.M.M.M.M.M.M.M.M.M.M.M.M.M.M.M.M.",
"M.M.M.M.M.m.0.o.o.o.o.o.o.o.o.o.o.o.o.o.o.o.o.o.O.o.o.o.o.o.o.o.=.=.o.o.o.o.O.o.o.o.o.o.o.o.o.w.M.M.M.M.M.M.M.M.M.M.M.M.M.M.M.M.",
"M.M.M.M.M.M.w.o.6.o.o.o.o.o.o.o.o.o.o.o.o.o.o.o.o.o.o.o.o.o.o.o.o.o.o.o.o.o.o.o.o.o.o.o.o.7.7.x.M.M.M.M.M.M.M.M.M.M.M.M.M.M.M.M.",
"M.M.M.M.M.M.b.v.v.0.o.o.o.o.o.o.o.o.o.o.o.o.o.o.o.o.o.o.o.o.o.o.o.o.o.o.o.o.o.o.o.o.o.=.w.v.v.m.M.M.M.M.M.M.M.M.M.M.M.M.M.M.M.M.",
"M.M.m.M.M.M.N.M.M.x.o.o.o.o.o.o.o.o.o.o.o.o.o.o.o.o.o.o.o.o.o.o.o.o.o.o.o.o.o.o.o.o.o.o.c.M.M.M.M.M.M.M.M.m.M.M.M.M.M.M.M.M.M.M.",
"M.M.M.M.M.M.M.M.M.w.o.o.o.o.o.o.o.o.o.o.o.7.o.7.o.o.o.7.o.o.o.o.o.o.o.o.o.o.o.o.6.6.6.7.c.M.M.M.M.M.M.M.M.M.M.M.M.M.M.M.M.M.M.M.",
"M.M.M.M.M.M.M.M.M.b.v.b.b.v.b.b.v.b.b.v.v.v.v.v.b.v.v.v.v.b.m.v.b.N.v.b.b.v.b.b.v.v.c.v.m.M.M.m.M.M.M.M.M.M.M.M.M.M.M.M.M.M.M.M."
};
