/* XPM */
static char *_43f73cc4b73492680c5cdc6c1c97df9rZU7gWj2yH8Wpdp3[] = {
/* columns rows colors chars-per-pixel */
"64 64 102 2 ",
"   c #1E263E",
".  c #1F2A3A",
"X  c #21263D",
"o  c #23293D",
"O  c #1F2642",
"+  c #212741",
"@  c #232A43",
"#  c #292E45",
"$  c #262E49",
"%  c #282F49",
"&  c #293147",
"*  c #27304A",
"=  c #2C334D",
"-  c #31364D",
";  c #2D3551",
":  c #2F3852",
">  c #303751",
",  c #333A54",
"<  c #383F56",
"1  c #363D59",
"2  c #383F59",
"3  c #3C435D",
"4  c #3E4662",
"5  c #3F4863",
"6  c #41465E",
"7  c #414763",
"8  c #434965",
"9  c #45476B",
"0  c #454C69",
"q  c #494E6B",
"w  c #465065",
"e  c #47506A",
"r  c #4A516D",
"t  c #4D5A6C",
"y  c #51566D",
"u  c #55596F",
"i  c #4B4D71",
"p  c #4D5572",
"a  c #4F5971",
"s  c #4D527B",
"d  c #515774",
"f  c #535A75",
"g  c #565D7A",
"h  c #595F7C",
"j  c #5F6277",
"k  c #576078",
"l  c #59617D",
"z  c #5B627E",
"x  c #5B637F",
"c  c #5C647D",
"v  c #5F667E",
"b  c #63687F",
"n  c #596180",
"m  c #5D6482",
"M  c #5C6483",
"N  c #5F6987",
"B  c #5F6488",
"V  c #606784",
"C  c #636A86",
"Z  c #646B85",
"A  c #666C87",
"S  c #646F86",
"D  c #6A6F84",
"F  c #696E87",
"G  c #62678A",
"H  c #636B88",
"J  c #666B88",
"K  c #646A8A",
"L  c #666B8B",
"P  c #656C8A",
"I  c #676D8A",
"U  c #666C8C",
"Y  c #666E8F",
"T  c #686E89",
"R  c #686F8B",
"E  c #6A6E8D",
"W  c #6D7287",
"Q  c #667189",
"!  c #67708D",
"~  c #6A7188",
"^  c #68708B",
"/  c #6C7189",
"(  c #69728D",
")  c #6A728C",
"_  c #6A738E",
"`  c #6A738F",
"'  c #6D718D",
"]  c #6C728D",
"[  c #676E91",
"{  c #6A6F91",
"}  c #677090",
"|  c #677392",
" . c #6A7291",
".. c #6E7190",
"X. c #6C7193",
"o. c #687493",
"O. c #6C7591",
"+. c #6F7592",
"@. c #687395",
"#. c #6A7395",
"$. c #6A7495",
"%. c #6E7796",
/* pixels */
"' ...._  .a w 8 8 3 3 t Z _ ' _  ._ v 0 0 e K  .+. ._ _ !  .$.@.$.%.{ f 9 8 7 7 8 7 8 8 7 8 8 8 g [ @. . .}  . . ._ B r 8 8 8 5 ",
"I E E Q S t w 5 6 w w t Z +.) +...' n 8 8 e S } ! _ _ Q ! _ | } @.$.{ f 8 8 8 0 8 7 8 0 0 0 0 0 l [ } [ { [ I [ } I M 0 0 0 0 9 ",
"p f a a t w 5 w u b j v I ' _ '  ._ x 0 0 w a f f f f f c S ) ) $. ._ f 8 w 0 8 8 8 8 0 0 f h z K {  .I g s p p p f p 0 8 0 n l ",
"5 8 8 8 5 8 3 8 k b W W ) E _ +._ Q l e 5 5 0 0 w 0 8 e k _ _ _  . .{ f 8 9 9 8 8 8 3 8 0 h D R ! {  .K q 9 5 4 0 0 7 8 5 r N @.",
"5 9 5 5 5 4 5 w f C E _ '  . .X. ._ M 0 5 5 5 8 5 5 8 8 f Z ) ) E { E d 8 8 8 8 8 6 8 8 7 l R _  . . .K p 0 7 9 8 6 6 8 5 r S _ ",
"n f 9 5 7 7 5 0 r f f n I  .@.X. . .g 0 5 3 , : : : : ; 3 f f f f f u q 6 8 7 8 6 6 3 6 6 g R ' '  . .{ B h f q 0 8 w 3 8 8 a d ",
"@.G 9 8 8 8 8 9 8 0 9 q [ { { X.$.} n 0 w 3 * O @ @ @ @ , 8 5 8 7 7 9 7 8 8 8 6 6 6 6 6 8 g _ E ..+. ...E { I p 0 8 8 0 5 5 5 5 ",
"..G s 0 8 9 9 8 8 7 7 i [ X.X.{ } } l 5 5 3 $ O O @ @ O = 8 8 8 8 9 8 7 8 8 8 8 8 7 7 6 8 z Q '  ... .@...@.E f w 8 8 8 8 8 5 5 ",
"@.[ B f a 9 8 8 5 9 9 r K @.{ { { I p 1 1 : @ @ + O @ @ , f g f f f f f f f r 8 6 8 6 8 8 k ~ E +...@...{  .I x f f y 8 8 7 8 8 ",
"{  .[ I K p 9 8 5 5 5 0 K  . . . ._ p * @ @ @ @ @ O O X 3 I _ _ { E E  .R R h 8 8 6 6 8 8 z D _ ...... .I _  ._ ' / h 0 0 7 5 7 ",
"{ @.[ ! [ s 8 5 9 8 9 p K  . . ._ _ r & O @ O + + O   @ 8 ) ' +..... .+._ +.v 0 8 0 8 6 8 l E _  . ... .E E I { _ R z 0 8 5 0 5 ",
"{ { [ ! ! M p p p p p g E _ ..C v c 8 @ O @ o + + - 3 3 f I  ...@.%... .+...m f f t 3 3 1 h _ _ '  . ._ [ _ _  .R R V f p p a t ",
"@.@.{ [ } } $. .E Q R E E _ C f 0 0 , o o o o o # y V K _ ' ........X.+...+.' Q A l ; @ $ p _ ' .. . . .E _ E E ! I _ E _ I A Q ",
"@.[ } ! }  .%. .' +.' ' ' _ A r 8 6 , o . X X o @ u D R _ ' +.' %.X.X.{  .+._ ) A z = @ = d _ +. ... . ._ .. ._ _  .I E _ _ _ Q ",
" .} [ } [  .@. ._ ' _ R C Z m r 3 3 - o . X o X # u R D ' ' ......X.X.%...'  ._ ' l ; @ * e m m C  . ._ _ '  ._ .. .E _ _ E _ R ",
"} @. .}  .[  .I _ _ ' V r e 0 > # # o o X o X X o d ' / '  ...{ ..@.X.X. .+.+...' v = @ @ = = = 0 I .. ._ _ ..E _ .. ._ _ _ _ ) ",
"} @.$.@.} } @._ _ E _ m 0 8 4 = + + + o o o X X @ u / ' ' ' .. ...X.{ %.+.O. ...{ n = @ @ @ @ @ 8 _  . .' +. ._ ' ..'  .+._ +._ ",
"n N N [ K [ K K C [ K m 0 0 8 > $ = = $ # # & & = f ) Z I '  ...%.X...@. ._ O.' ' B = @ @ @ @ @ 3 n C I S C A Q Q I I Q Q I I I ",
": 1 5 i p i p p i 0 p i 0 0 0 d m N n n l g k h g f r r l ' { ..{ +. ... .O.+. ...v % @ @ @ @ @ $ ; : > > ; , 4 0 0 0 0 r 0 r e ",
"@ $ 4 5 5 5 5 5 5 5 5 5 0 0 0 m ........' ' _ ' E d 8 7 d _ ' { X...+..._ _ ' ' ' n % O   O @ @ @ @ @ O O O @ , 4 8 7 7 5 5 5 5 ",
"* ; 4 7 5 7 7 8 8 8 5 9 0 q i G X.X.X.X...X.X.%.{ g 0 9 f [ { { ..{ ......_ +.' ..V : + X @ @ @ $ $ $ $ $ @ $ , 5 9 5 0 8 0 4 5 ",
"f g n l g 0 5 9 5 9 5 i n B G { X.+.X.+...$.X...{ G m n g p d g I @. ....._ ..+. .Z 5 2 < # + @ 1 p d d d d f l M M g 5 8 5 5 0 ",
"_ ' _ E K p 5 5 5 8 9 p E { X.X.+.X.X.X.%.X.X.X.X.@. . .n 9 0 p K _ _ ' '  . .+.' D q 7 3 =   @ 8 ! _ E ' ' _ _ _ I M 5 5 i 5 5 ",
"_ _ Q [ I p 5 9 9 8 5 p [ X.X.X.X.X.X.X.X.X.X.X.{  .{ { g 8 0 p V  . ...' ' ..+.' C q 0 8 = @ @ 7 E _ _ '  .+.' Q  .M i 5 5 5 i ",
"_ R R _ _ C g g g h n m { X.X.X.X.X.+.X.X.X.X.X.#.X.X.[ g 8 0 0 p g g g g h h u g d 0 8 0 q q 0 f _ ..%. ... .' ' _ h 0 9 0 f n ",
"_ _ _ ' _  ... . . .[ { { X.X.X.X.X.X.X.X.X.X.X.X.X.[ [ g 9 0 7 9 8 8 8 4 8 7 9 8 8 0 8 0 l I I E _  .+...{ _  ...' v 0 8 r N [ ",
"_  .E  .E ..%.+.X.X.{ @.{ X.X.@.X.X.+.X.X.X.X.X.{ ..X.{ g 7 8 0 8 9 8 8 7 6 8 9 8 8 8 8 8 h ' +._ I  .+...@. . . .' m 0 5 p K ! ",
"E E  ._ _  ... .X...@.{ @.X.X.{ X.X.X.X.X.X.$.X.{ { { { f < , < 4 7 8 8 7 8 3 < 1 3 , > 3 f ' ' E _  . .....E B n v p 0 8 9 N _ ",
" ._ '  . ._  . .X.@.} @. .{  . .X.X.X.X.X.X.X.X.X.{ E R p = @ = 6 8 7 7 6 9 < # @ & @ $ $ f E _ ' ' .. . ._ E f 0 0 9 8 9 0 N  .",
"E {  .{  . . .[  . . .[ [ @.{ @.{ @.X.X.{ { X.X.X.X._ R d $ @ * 6 8 9 7 9 6 , # @ + * O $ d ' E _ _ ' _ E  . .f 8 8 0 5 5 q C } ",
" .{  . ._  . . .{ [ @.@. .[ } } X.@.{ @.{  .@.X.X.{ ..I r * + * - 6 < < , < - - : : = : > p V b x v x h f f f 0 8 8 4 9 8 0 S  .",
" .E _ '  . ... .@. . .[  .@.@. .@.{ X.X.@.X.X.X.X.{ E _ r $ @ @ # o o + o + - 6 7 3 3 3 7 0 r 0 8 8 8 4 ; $ = 3 5 8 9 5 4 0 K +.",
"_ { _ $.%.$. .$. . .}  .@.{ $. .{ @.X.{ X.{ { .. .{ E I q # + @ o o X X + + - 6 6 8 6 7 6 7 7 7 6 6 8 3 $ + @ 1 7 7 8 7 5 9 K %.",
"_ I K [ K n l l N E  . . . .{  .X.X.@.{ X.X.X.{ { V z h 7 # + X o o X - , , 6 i r q q r r r r r 0 e r 8 ; $ = > 2 3 8 0 p f C +.",
" .K p p 0 > ; ; e I _  ...' ' ....@. . .@.{ { ..I 7 % % # @ X X + X # i J b D Z C C C K I I I K C C D l 0 4 2 ; $ $ 4 m Z Z  . .",
"_ C p 0 5 ; O O 4 K .. .....' ' E  .{  ...X.{ ' I 3 @ @ @ + X X + o # y ' ..' E _ E _ _ ' ' _  .' _ ' K 0 9 4 ; @ $ 4 K _ _  ._ ",
"E C f q 8 = O @ 3 x V C V K V A K K K Z Z K R Z N < @ @ + X X X X X @ y E ' ' ' E _ _  . ._  . ... . .K p 0 q 1 $ $ 3 v Z M v x ",
"I A C m x , O   @ ; > > > > > 8 q r r q q r r q 9 ; @ @ @ X X X X o # d E ..E E  .' .. . . . ...+. . . .K K N q 4 3 1 - > > > = ",
"_ R ) ) m 3 + + o X @ @ X X @ < 8 8 8 6 6 8 7 7 3 = @ @ @ X X X o o @ d E ..E E  . . . . . . . ._  ....._ { E p 8 0 , @ @ X @ o ",
"' _ ' ) I 3 o o o @ @ O X X # < 6 6 6 8 8 6 8 8 6 ; @ $ @ X X X X X @ d ..' { { E  . . . ._  . .+._ @.@.{  .I f 9 7 1 @ @ @ @ o ",
"_ R R ' R < X o o @ @ o + @ @ % - = < 8 w 6 8 6 6 3 < 1 - X X X X o # d { +.{ E {  . . . .'  .+.+...X.X. ... .p 5 5 1 @ $ @ @ @ ",
"' ' ' R R < + @ @ @ X o @ @ @ X o X , w w w w w 8 6 6 6 > @ @ X o o # u { ..{ E .. .{  . .+. .'  . .%.....%.+.s 5 9 1 $ @ @ @ @ ",
" ..._ E E 2 + @ @ @ o + @ @ @ @ o @ , 8 8 9 q w w 8 0 0 2 # @ # + + # d { ....E {  . . .O._ _  . . .X.@. .@...a 5 4 1 $ $ @ @ @ ",
" .K h g g 7 1 > $ @ + + X @ @ + + + 3 u b b b b h h l n d 2 , % # + % d E E  .E  . . .' _  .+.+. . .@. .+. .{ p > ; : 1 > ; = @ ",
" .N p 9 0 0 0 4 > @ @ @ @ @ O   @ @ 7 Z W ' +.' _ E _ ..V 9 6 1 + + # d E E  . . .{  . . .'  ._  .X.@.%. . .} 5 $ O : 8 7 2 ; @ ",
"@.N i 7 8 7 8 7 , @ O $ * O + O + @ 8 I A E R E _ ' E ' h 8 7 < # o o d R E  ...{  ._ +. .+. . .%. .@.{ I  .I 3 O O ; 5 0 3 % @ ",
" .[ N g g h h h p 0 0 0 r 0 8 : @ @ 0 I E _ / ....%.....Z h g t < - - 7 9 q h E @. ._ _  .O._ +.%. ... . . . .a 8 9 r g f f 0 8 ",
"{ @.X...{ ..+..... ... ._ +.I 4 @ $ 0 E E {  ...X...%.X.+.' ..V 9 6 8 - @ @ 6 R .. .+. . ._ +. . . ... . . .+. .} }  . . ._ _ E ",
"@.@...@...{ { E ..' ..' +.I C 3 @ @ 0 I _ E  .@...%.....X.%._ V q 8 0 % @ @ 8 R  . .+.+.O.O.O. ._ _ _ _ !  . ._ _  . ._  .! _  .",
"{ { @.X.{ V V n n m m M _ _ I r 4 3 f _ ' ....@.X.X.X.X.X...' V q 8 8 , # > 6 i f a f t t f f f n _ _  ._ _  . ._  .S l M g g M ",
"{ @.X.X.{ f q q 0 0 0 p C _ ' E I K A ' ...... .X...X.X. .X...V q 6 8 7 7 4 1 * @ @ @ $ & o @ @ 5 K  . .+._  .!  ._ x 0 9 0 8 0 ",
"X.X.X.X.E f 9 0 8 7 9 q C E _ _ ' R Q ' +.@. . .X.%.X.X. ..._ C q 7 8 9 7 7 > + . O     . o   O 3 R _  . ._  . ...! x 8 5 5 8 8 ",
"K K K G V i 8 8 8 q q f C I  ._ _ +.I m m K _  ...X.+.{ ......C q 7 9 6 8 7 < # * * * & & = > > r Q  ._ N M C N N N g 0 5 5 p e ",
"9 i i 9 q 0 9 8 d C C K I _ ..X.+. .M q 8 p K E ..%.+..._ ....E y 6 9 7 8 8 7 6 3 3 3 5 8 g A S I _ _ C r 0 0 e 0 p 5 5 5 p N ! ",
"9 0 9 0 0 8 8 8 f ! _ _ .. .%. .%...l 8 5 r K E _ ..' ' ' ' ' Z y 6 8 8 6 6 w 6 8 6 8 7 0 v I _ _ _ _ C e 5 7 8 5 0 w 5 0 r Z ! ",
"i q 8 7 8 8 8 9 p N I I  .....X.....n 0 5 r x v n m m v C C C z y w 6 8 8 8 6 8 6 6 8 8 0 n ! _ ! _ _ K f e e 5 5 5 w 5 5 e x Z ",
"K l 0 8 8 8 7 0 9 p 0 f I  .+. ...+.x 0 8 5 > = = > - - 3 r r r 6 6 7 7 7 7 6 9 7 6 8 8 q h I  ._ E _ ! S Z N p 5 e 5 5 8 w t w ",
"..G q 0 9 8 0 8 8 5 5 i I ....$. .' h 0 8 1 @ o X @ o o = 6 8 8 6 9 7 6 6 7 6 6 8 7 8 6 0 x _ _ _ _ _ _ ! ! I a 0 e 0 0 5 5 5 5 ",
"..K f 0 9 9 0 8 5 5 5 p _  ... .' ..h 8 4 < @ o X o o o > r e q i q q q 9 0 q 6 7 7 8 8 9 l ) _ ! _ _ ! ! I I f 5 w 0 5 5 8 5 5 ",
"{ { V x b y 8 8 5 9 5 i I .. .+.+.' d - % @ @ o o o o X 6 b C Z K A b A b b b 9 7 7 7 8 q l ) _ { _  .E _ Q ! S N M a 0 e 5 5 5 ",
"+.X..._ I r 7 8 9 5 7 r I  .+...+...r @ o o o o o o o o 6 W ' +.@...%...' ..j 9 5 8 5 5 0 l _  . . ._ E ! _ I _ } I n 8 5 5 5 5 ",
"{ X.{ _ _ p 0 0 0 0 8 p S $..._ / R r @ o o o X X o # @ 8 / +. .%...@...' ..b q 0 8 5 5 8 n  .! _  . . .E _ _ [ ! } M p 0 0 5 e ",
"$. ....._ K m n M n n m E ' Q v g d 6 @ @ o o X o 6 t r x W  .+.{ @.@. .+...C z n g 1 ; : g  ._  ._  . . . . . .!  .} M M l N M ",
"@.}  .+... .%...{  . . .E  .K p w 9 , @ @ @ @ o # u R D E ' @.X.@... .@. .....{ ! M = O * s { _  . . ._  . . . . . .@.$.$.@.@.@."
};
